<?xml version="1.0" encoding="UTF-8"?>
<svg width="22px" height="22px" viewBox="0 0 22 22" version="1.1" xmlns="http://www.w3.org/2000/svg" xmlns:xlink="http://www.w3.org/1999/xlink">
    <!-- Generator: Sketch 51.3 (57544) - http://www.bohemiancoding.com/sketch -->
    <title>Search</title>
    <desc>Created with Sketch.</desc>
    <defs>
        <polygon id="path-1" points="0 0 21.9993125 0 21.9993125 21.7730258 0 21.7730258"></polygon>
    </defs>
    <g id="Page-1" stroke="none" stroke-width="1" fill="none" fill-rule="evenodd">
        <g id="SanaCall-(1800)_V02" transform="translate(-1496.000000, -40.000000)">
            <g id="Navigation">
                <g id="Group-15" transform="translate(1496.000000, 28.000000)">
                    <g id="Search" transform="translate(0.000000, 12.000000)">
                        <mask id="mask-2" fill="white">
                            <use xlink:href="#path-1"></use>
                        </mask>
                        <g id="Clip-2"></g>
                        <path d="M2.75,8.84536082 C2.75,5.46303093 5.5199375,2.72164948 8.9368125,2.72164948 C12.354375,2.72164948 15.1243125,5.46303093 15.1243125,8.84536082 C15.1243125,12.2276907 12.354375,14.9690722 8.9368125,14.9690722 C5.5199375,14.9690722 2.75,12.2276907 2.75,8.84536082 M21.597125,19.450268 L16.1500625,14.0518763 C17.230125,12.5903505 17.873625,10.7940619 17.873625,8.84536082 C17.873625,3.96 13.8730625,0 8.9368125,0 C4.00125,0 0,3.96 0,8.84536082 C0,13.7307216 4.00125,17.6907216 8.9368125,17.6907216 C10.910625,17.6907216 12.728375,17.0504536 14.2071875,15.9774433 L19.6521875,21.3744742 C20.189125,21.9058763 21.0595,21.9058763 21.5964375,21.3744742 C22.133375,20.8430722 22.1340625,19.9816701 21.597125,19.450268" id="Fill-1" fill="#9B9B9B" mask="url(#mask-2)"></path>
                    </g>
                </g>
            </g>
        </g>
    </g>
</svg>