<?xml version="1.0" encoding="UTF-8"?>
<svg width="150px" height="33px" viewBox="0 0 150 33" version="1.1" xmlns="http://www.w3.org/2000/svg" xmlns:xlink="http://www.w3.org/1999/xlink">
    <!-- Generator: Sketch 51.3 (57544) - http://www.bohemiancoding.com/sketch -->
    <title>Logo</title>
    <desc>Created with Sketch.</desc>
    <defs></defs>
    <g id="Page-1" stroke="none" stroke-width="1" fill="none" fill-rule="evenodd">
        <g id="SanaCall-(1800)_V02" transform="translate(-50.000000, -33.000000)">
            <g id="Navigation">
                <g id="Logo" transform="translate(50.000000, 33.649485)">
                    <path d="M146.968998,12.7649322 L136.724351,12.7649322 C136.909461,9.79557161 138.684258,7.11802991 141.939936,7.11802991 C145.934642,7.11802991 146.968998,9.7250372 146.968998,12.7649322 Z M141.903196,4.47644693 C137.021092,4.47644693 133.359867,8.09583052 133.359867,14.4660563 C133.359867,21.3065115 136.687611,24.274489 142.235264,24.274489 C144.195171,24.274489 146.338775,23.9868193 148.114985,22.9357182 C148.448466,22.7918833 148.521945,22.5747479 148.336835,22.2110116 L147.561068,20.6924472 C147.373131,20.3660526 147.189434,20.3287109 146.858779,20.5098875 C145.82301,21.0534174 144.121692,21.5236469 142.495266,21.5236469 C139.276328,21.5236469 136.650872,19.8598645 136.615545,15.298639 L147.227587,15.298639 C148.707055,15.298639 150,14.7551091 150,12.4758794 C150,7.73486028 147.522915,4.47644693 141.903196,4.47644693 Z M121.659774,7.37112399 L121.659774,19.3163346 C121.659774,22.6826241 122.990872,24.274489 126.837207,24.274489 C127.536669,24.274489 129.351031,24.2025716 130.792347,23.7683009 C131.20072,23.624466 131.125828,23.4419063 131.087675,23.1528535 L130.755607,21.5236469 C130.718868,21.2705528 130.645389,21.1626766 130.20169,21.2345941 C129.38777,21.3438532 127.981781,21.4890712 127.352972,21.4890712 C125.578175,21.4890712 124.875887,20.7643646 124.875887,19.0991992 L124.875887,7.37112399 L128.980811,7.37112399 C129.42451,7.37112399 129.499402,7.2272891 129.499402,6.86493583 L129.499402,5.41828882 C129.499402,5.09189427 129.42451,4.87475891 128.980811,4.87475891 L124.875887,4.87475891 L124.875887,0.493327034 C124.875887,0.0244806296 124.654037,-0.0488198407 124.321969,0.0244806296 L123.102503,0.45875134 C122.69413,0.639927974 122.50902,0.711845416 122.434128,1.18207485 L121.993255,3.77525186 C121.993255,3.77525186 121.945211,4.04217621 121.928255,4.15558449 C121.911298,4.27175882 121.870319,4.6548575 121.870319,4.6548575 C121.870319,4.6548575 121.64423,4.69773136 121.464773,4.72815797 C121.285315,4.75996761 120.995638,4.81667175 120.995638,4.81667175 L118.959426,5.19977043 C118.552467,5.30902963 118.442248,5.45424754 118.442248,5.81521778 L118.442248,6.86493583 C118.442248,7.15537166 118.515727,7.37112399 118.959426,7.37112399 L121.659774,7.37112399 Z M111.977523,20.9815 C110.424576,21.5609886 108.20608,21.6702478 107.355421,21.6702478 C104.731378,21.6702478 102.658427,20.9095825 102.658427,18.2666165 C102.658427,14.8284096 105.877366,14.5379737 107.688902,14.5379737 L111.977523,14.5379737 L111.977523,20.9815 Z M115.269941,22.1045185 L115.269941,10.7747553 C115.269941,6.72110095 113.051445,4.47644693 108.16934,4.47644693 C106.171281,4.47644693 103.472347,4.76549972 101.624071,5.52616498 C101.255264,5.66999987 101.217111,5.88851825 101.292003,6.14161232 L101.734289,7.69751853 C101.845921,8.09583052 102.066357,8.09583052 102.47473,7.95061261 C103.695609,7.58964237 105.914105,7.2272891 107.612597,7.2272891 C111.276648,7.2272891 112.014262,8.74723659 112.014262,11.0278493 L112.014262,11.8244733 L107.503792,11.8244733 C101.624071,11.8244733 99.4423144,14.9362857 99.4423144,18.2666165 C99.4423144,21.4157707 101.030588,24.274489 107.390747,24.274489 C109.722288,24.274489 112.532854,23.9868193 114.71461,23.0435943 C115.08483,22.8997595 115.269941,22.6107067 115.269941,22.1045185 Z M87.4624363,4.51240565 C81.2492346,4.51240565 78.4768212,8.74723659 78.4768212,14.6472329 C78.4768212,20.2941352 81.0287981,24.3118308 86.83504,24.3118308 C87.8524394,24.3118308 89.8632163,24.172145 91.790623,23.3727549 L91.790623,23.7323422 C91.790623,25.620175 91.1830094,26.765322 89.984739,27.7016318 C88.5773365,28.8052879 86.0451424,28.8744393 85.2665492,28.8841205 C84.92459,28.8896526 84.8581764,29.1040219 84.8595895,29.3543499 C84.9401336,30.2118271 85.1422004,31.2117562 85.1422004,31.2117562 C85.2156793,31.5741094 85.3188323,31.6474099 85.8416625,31.6667723 C86.4309063,31.6889007 90.0059348,31.6474099 92.0364945,30.0223523 C94.2450991,28.2576089 95.1169538,26.0738081 95.1169538,22.3935713 L95.1169538,6.3947064 C95.1169538,6.06969488 95.0067356,5.8511765 94.6760808,5.70734161 C92.4561718,4.80284147 89.7911505,4.51240565 87.4624363,4.51240565 Z M91.8641018,20.8362821 C90.0158262,21.4157707 88.1293981,21.5609886 87.2038473,21.5609886 C83.8012115,21.5609886 81.7678257,19.1711167 81.7678257,14.4300976 C81.7678257,9.25342474 84.1346924,7.2272891 87.5740676,7.19133038 C88.720055,7.19133038 90.4199599,7.33654829 91.8641018,7.80677772 L91.8641018,20.8362821 Z" id="Fill-1" fill="#94C01F"></path>
                    <path d="M71.2254574,21.4488295 C69.6787157,22.0281539 67.4690847,22.1373822 66.6232324,22.1373822 C64.0068604,22.1373822 61.9435999,21.3769324 61.9435999,18.736098 C61.9435999,15.2974827 65.1482685,15.0085119 66.9539733,15.0085119 L71.2254574,15.0085119 L71.2254574,21.4488295 Z M74.5033113,22.5715298 L74.5033113,11.2449771 C74.5033113,7.19247155 72.2950877,4.94845361 67.4324921,4.94845361 C65.4438242,4.94845361 62.754267,5.23880713 60.913377,5.9978742 C60.5432286,6.14166832 60.506636,6.36012478 60.5812287,6.61314714 L61.0231548,8.16861244 C61.1329327,8.56681156 61.3553032,8.56681156 61.7606368,8.42301743 C62.9752301,8.06076684 65.1848611,7.69851626 66.8793807,7.69851626 C70.5245681,7.69851626 71.26205,9.21803303 71.26205,11.4979995 L71.26205,12.2943977 L66.7696028,12.2943977 C60.913377,12.2943977 58.7403386,15.406711 58.7403386,18.736098 C58.7403386,21.8829772 60.3236729,24.742268 66.6584176,24.742268 C68.9792338,24.742268 71.7771614,24.4532972 73.9516072,23.5117222 C74.3203482,23.3665454 74.5033113,23.0775745 74.5033113,22.5715298 Z M54.5209286,23.800693 L54.5209286,14.1028854 C54.5209286,7.5533395 51.8679641,4.94845361 45.5712195,4.94845361 C44.3538113,4.94845361 42.0344025,5.09363037 40.9309944,5.27475566 C39.1618822,5.52777802 38.6087707,6.39607331 38.6087707,8.02481831 L38.6087707,23.800693 C38.6087707,24.2707892 38.8297338,24.3440689 39.1984748,24.3440689 L41.2237353,24.3440689 C41.6276615,24.3440689 41.812032,24.2707892 41.812032,23.800693 L41.812032,8.02481831 C43.3967737,7.77179596 44.7605523,7.73446479 45.3122563,7.73446479 C50.0636667,7.73446479 51.31626,9.8692545 51.31626,14.2121136 L51.31626,23.800693 C51.31626,24.2707892 51.5006305,24.3440689 51.9059641,24.3440689 L53.9312246,24.3440689 C54.3731508,24.3440689 54.5209286,24.2707892 54.5209286,23.800693 Z M30.6104695,21.4488295 C29.0623204,22.0281539 26.8540969,22.1373822 26.0068371,22.1373822 C23.3904651,22.1373822 21.328612,21.3769324 21.328612,18.736098 C21.328612,15.2974827 24.5332806,15.0085119 26.337578,15.0085119 L30.6104695,15.0085119 L30.6104695,21.4488295 Z M33.8883234,22.5715298 L33.8883234,11.2449771 C33.8883234,7.19247155 31.677285,4.94845361 26.8175043,4.94845361 C24.827429,4.94845361 22.1378718,5.23880713 20.2969817,5.9978742 C19.9296482,6.14166832 19.8916482,6.36012478 19.9648334,6.61314714 L20.4067596,8.16861244 C20.5179448,8.56681156 20.7389079,8.56681156 21.1442415,8.42301743 C22.3588349,8.06076684 24.5684658,7.69851626 26.2643928,7.69851626 C29.9109876,7.69851626 30.6470622,9.21803303 30.6470622,11.4979995 L30.6470622,12.2943977 L26.1532076,12.2943977 C20.2969817,12.2943977 18.1239434,15.406711 18.1239434,18.736098 C18.1239434,21.8829772 19.7072777,24.742268 26.0434297,24.742268 C28.3628385,24.742268 31.163581,24.4532972 33.3366194,23.5117222 C33.7039529,23.3665454 33.8883234,23.0775745 33.8883234,22.5715298 Z M14.4097929,19.2061942 C14.4097929,15.8049101 11.4640874,14.537033 8.40578927,13.4157154 C5.23912066,12.2584492 4.02311992,11.6058451 4.02311992,9.97848273 C4.02311992,8.67603979 5.20112064,7.6266192 7.37415901,7.6266192 C9.03208595,7.6266192 10.3212719,7.80774449 12.2733472,8.53224566 C12.4943103,8.64009125 12.6786808,8.67603979 12.8250512,8.3870689 L13.5259406,6.6850442 C13.5991258,6.43202185 13.5259406,6.14166832 13.2317922,5.9978742 C11.3163096,5.23880713 9.43741953,4.94845361 7.44734424,4.94845361 C3.21245275,4.94845361 0.891636515,7.11919185 0.891636515,10.159608 C0.891636515,13.0175163 2.66074871,14.2840107 6.78586235,15.7316304 C9.65838263,16.7451024 11.3163096,17.5774492 11.3163096,19.3499883 C11.3163096,21.0865789 9.84275311,22.0641025 7.48534426,22.0641025 C5.75423209,22.0641025 3.5446011,21.6659033 1.59252583,20.7616595 C1.11259961,20.5805342 0.92822913,20.6883798 0.78185867,21.0506304 L0.0809693518,22.5341986 C-0.103401132,22.9323977 0.0457841451,23.1494716 0.339932474,23.2932657 C2.32860036,24.3440689 5.20112064,24.742268 7.48534426,24.742268 C11.3529022,24.742268 14.4097929,22.9323977 14.4097929,19.2061942 Z" id="Fill-3" fill="#00A4D2"></path>
                </g>
            </g>
        </g>
    </g>
</svg>