<?xml version="1.0" encoding="UTF-8"?>
<svg width="35px" height="35px" viewBox="0 0 35 35" version="1.1" xmlns="http://www.w3.org/2000/svg" xmlns:xlink="http://www.w3.org/1999/xlink">
    <!-- Generator: Sketch 51.3 (57544) - http://www.bohemiancoding.com/sketch -->
    <title>Shape</title>
    <desc>Created with Sketch.</desc>
    <defs></defs>
    <g id="Symbols" stroke="none" stroke-width="1" fill="none" fill-rule="evenodd">
        <g id="Footer" transform="translate(-1341.000000, -196.000000)" fill="#9B9B9B" fill-rule="nonzero">
            <g transform="translate(-15.000000, 0.000000)" id="SoMe_Icons">
                <g transform="translate(1356.000000, 196.000000)">
                    <path d="M12.5608215,13.7394689 C12.5608215,13.0888556 13.0487815,12.5608215 13.6498917,12.5608215 L16.97132,12.5608215 C17.5747874,12.5608215 18.0603901,13.0888556 18.0603901,13.7394689 C18.0603901,14.3900822 17.5747874,14.9181163 16.97132,14.9181163 L13.6498917,14.9181163 C13.0487815,14.9181163 12.5608215,14.3900822 12.5608215,13.7394689 Z M20.8266755,19.6327057 L13.7229678,19.6327057 C13.080605,19.6327057 12.5608215,20.1595611 12.5608215,20.811353 C12.5608215,21.463145 13.080605,21.9900004 13.7229678,21.9900004 L20.8254968,21.9900004 C21.4690383,21.9900004 21.9900004,21.4619664 21.9900004,20.811353 C21.9900004,20.1607397 21.4690383,19.6327057 20.8266755,19.6327057 Z M26.7045898,15.8751779 C26.7045898,15.3589304 26.2873487,14.9416892 25.7734584,14.9416892 L24.2400382,14.9416892 C23.4550591,14.9416892 23.3100854,14.3417577 23.3100854,13.6003885 C23.3100854,10.4227552 20.7382769,7.8462321 17.5665369,7.8462321 L13.5897807,7.8462321 C10.4180406,7.8462321 7.8462321,10.4227552 7.8462321,13.6015672 L7.8462321,20.9492548 C7.8462321,24.1280667 10.4180406,26.7045898 13.5897807,26.7045898 L20.9622199,26.7045898 C24.1327813,26.7045898 26.7045898,24.1280667 26.7045898,20.9492548 L26.7045898,15.8751779 Z M35,7.29166667 L35,27.7083333 C35,31.7347917 31.73625,35 27.7083333,35 L7.29166667,35 C3.26375,35 0,31.7347917 0,27.7083333 L0,7.29166667 C0,3.26520833 3.26375,0 7.29166667,0 L27.7083333,0 C31.73625,0 35,3.26520833 35,7.29166667 Z" id="Shape"></path>
                </g>
            </g>
        </g>
    </g>
</svg>