<?xml version="1.0" encoding="UTF-8"?>
<svg width="35px" height="35px" viewBox="0 0 35 35" version="1.1" xmlns="http://www.w3.org/2000/svg" xmlns:xlink="http://www.w3.org/1999/xlink">
    <!-- Generator: Sketch 51.3 (57544) - http://www.bohemiancoding.com/sketch -->
    <title>Shape</title>
    <desc>Created with Sketch.</desc>
    <defs></defs>
    <g id="Symbols" stroke="none" stroke-width="1" fill="none" fill-rule="evenodd">
        <g id="Footer" transform="translate(-1465.000000, -196.000000)" fill="#9B9B9B" fill-rule="nonzero">
            <g transform="translate(-15.000000, 0.000000)" id="SoMe_Icons">
                <g transform="translate(1356.000000, 196.000000)">
                    <path d="M137.459246,17.5 C137.459246,15.2688527 139.267539,13.4605597 141.5,13.4605597 C143.732461,13.4605597 145.542067,15.2675395 145.542067,17.5 C145.542067,19.7324605 143.731147,21.5407536 141.5,21.5407536 C139.268853,21.5407536 137.459246,19.7311473 137.459246,17.5 Z M147.89403,16.5991365 C147.937366,16.8946092 147.964943,17.1940216 147.964943,17.5 C147.964943,21.0719368 145.070624,23.9649431 141.501313,23.9649431 C137.932003,23.9649431 135.03637,21.0706236 135.03637,17.5 C135.03637,17.1940216 135.063948,16.8946092 135.107284,16.5991365 C135.147993,16.3089166 135.205775,16.0252628 135.283254,15.7494883 L133.620728,15.7494883 L133.620728,24.5729602 C133.620728,25.0181391 133.981861,25.3792725 134.429666,25.3792725 L148.571647,25.3792725 C149.018139,25.3792725 149.379272,25.0181391 149.379272,24.571647 L149.379272,15.7481751 L147.718059,15.7481751 C147.794225,16.0252628 147.852007,16.3089166 147.89403,16.5991365 Z M148.570334,9.62072754 L146.66749,9.62072754 C146.219684,9.62072754 145.859864,9.98186086 145.859864,10.428353 L145.859864,12.3325105 C145.859864,12.7790026 146.219684,13.1414491 146.66749,13.1414491 L148.570334,13.1414491 C149.016826,13.1414491 149.379272,12.7790026 149.379272,12.3325105 L149.379272,10.428353 C149.379272,9.98186086 149.018139,9.62072754 148.570334,9.62072754 Z M152.005697,9.41849288 C152.005697,8.08032977 150.920983,6.99430339 149.581507,6.99430339 L133.418493,6.99430339 C132.08033,6.99430339 130.994303,8.08032977 130.994303,9.41849288 L130.994303,25.5801939 C130.994303,26.9196702 132.08033,28.0056966 133.418493,28.0056966 L149.58282,28.0056966 C150.920983,28.0056966 152.005697,26.9196702 152.005697,25.5801939 L152.005697,9.41849288 Z M159,7.29166667 L159,27.7083333 C159,31.7347917 155.73625,35 151.708333,35 L131.291667,35 C127.265208,35 124,31.7347917 124,27.7083333 L124,7.29166667 C124,3.26520833 127.265208,0 131.291667,0 L151.708333,0 C155.73625,0 159,3.26520833 159,7.29166667 Z" id="Shape"></path>
                </g>
            </g>
        </g>
    </g>
</svg>