<?xml version="1.0" encoding="UTF-8"?>
<svg width="35px" height="35px" viewBox="0 0 35 35" version="1.1" xmlns="http://www.w3.org/2000/svg" xmlns:xlink="http://www.w3.org/1999/xlink">
    <!-- Generator: Sketch 51.3 (57544) - http://www.bohemiancoding.com/sketch -->
    <title>Shape</title>
    <desc>Created with Sketch.</desc>
    <defs></defs>
    <g id="Symbols" stroke="none" stroke-width="1" fill="none" fill-rule="evenodd">
        <g id="Footer" transform="translate(-1527.000000, -196.000000)" fill="#9B9B9B" fill-rule="nonzero">
            <g transform="translate(-15.000000, 0.000000)" id="SoMe_Icons">
                <g transform="translate(1356.000000, 196.000000)">
                    <path d="M213.708333,0 L193.291667,0 C189.265208,0 186,3.26520833 186,7.29166667 L186,27.7083333 C186,31.7347917 189.265208,35 193.291667,35 L213.708333,35 C217.73625,35 221,31.7347917 221,27.7083333 L221,7.29166667 C221,3.26520833 217.73625,0 213.708333,0 Z M211.272439,13.5461467 C211.525611,19.1389594 207.354926,25.375 199.970524,25.375 C197.724677,25.375 195.635095,24.7172358 193.875,23.5882557 C195.985175,23.8365828 198.090505,23.2514998 199.762171,21.9420281 C198.021458,21.9093216 196.553299,20.7597485 196.048166,19.1801454 C196.672012,19.2988579 197.284956,19.2637287 197.843389,19.1123096 C195.930665,18.728311 194.611502,17.0057683 194.653899,15.1633018 C195.189317,15.4612944 195.803473,15.6405745 196.453969,15.6611675 C194.684183,14.4776765 194.182683,12.139767 195.223235,10.3518113 C197.184414,12.7575565 200.114675,14.3407937 203.419243,14.506749 C202.839006,12.0198431 204.727503,9.625 207.294359,9.625 C208.436664,9.625 209.471158,10.1071181 210.195547,10.8811721 C211.101638,10.7031034 211.953219,10.3724042 212.722427,9.91693586 C212.424435,10.8460429 211.794532,11.6249423 210.974446,12.1167513 C211.778784,12.0198431 212.54557,11.8066451 213.257845,11.4904822 C212.726061,12.2851292 212.051338,12.9852907 211.272439,13.5461467 Z" id="Shape"></path>
                </g>
            </g>
        </g>
    </g>
</svg>